<svg xmlns="http://www.w3.org/2000/svg" viewBox="0 0 96 96" fill="none">
  <defs>
    <linearGradient id="metal" x1="18" y1="10" x2="75" y2="84" gradientUnits="userSpaceOnUse"><stop stop-color="#f1f7ff"/><stop offset=".25" stop-color="#8498af"/><stop offset=".5" stop-color="#dfeaf6"/><stop offset=".73" stop-color="#4a617b"/><stop offset="1" stop-color="#bbd0e5"/></linearGradient>
    <linearGradient id="front" x1="39" y1="10" x2="89" y2="86" gradientUnits="userSpaceOnUse"><stop stop-color="#ffffff"/><stop offset=".35" stop-color="#a9c4df"/><stop offset=".5" stop-color="#eef7ff"/><stop offset="1" stop-color="#718faa"/></linearGradient>
    <radialGradient id="hub"><stop stop-color="#111c29"/><stop offset=".55" stop-color="#344e6c"/><stop offset=".8" stop-color="#9cb8d2"/><stop offset="1" stop-color="#26394f"/></radialGradient>
  </defs>
  <!-- Smaller articulated arm behind a dramatically foreshortened open gripper. -->
  <ellipse cx="24" cy="89" rx="22" ry="5" fill="#152335"/>
  <path d="m5 83 25-6 16 10-29 6z" fill="url(#metal)" stroke="#8ea4bd"/>
  <path d="m13 82 8-22 10 1 4 18-15 8zM20 64 10 31l11-6 13 35zM17 29 21 12l11-3 6 22zM31 17l25 15-5 14-26-16z" fill="url(#metal)" stroke="#7d95af"/>
  <g fill="url(#hub)" stroke="#adc3d9"><circle cx="25" cy="64" r="8"/><circle cx="17" cy="30" r="7"/><circle cx="29" cy="18" r="7"/></g>
  <path d="M26 34q11-4 24 8" stroke="#111d2b" stroke-width="3"/>
  <!-- Wrist recedes into the center of the open mouth; broad pads face the camera. -->
  <path d="m47 30 15-6 15 11-1 28-17 10-16-14z" fill="url(#metal)" stroke="#a4bed7"/>
  <ellipse cx="62" cy="48" rx="15" ry="19" fill="url(#hub)" stroke="#b7cee5"/>
  <ellipse cx="62" cy="48" rx="7" ry="10" fill="#0d1723" stroke="#6986a4"/>
  <!-- Upper jaw: rear hinge, projecting rails, oversized front contact pad. -->
  <path d="m50 36-9-12 4-14 38-6 10 12-4 22-14-7 1-13-20 4 5 12z" fill="url(#metal)" stroke="#a6bfd8"/>
  <path d="m45 10 38-6 10 12-42 9-10-1z" fill="url(#front)" stroke="#d8e8f8"/>
  <path d="m51 25 42-9-4 22-14-7 1-9-20 5z" fill="#29425d"/>
  <path d="m54 25 30-6 3 6-29 7z" fill="#111f30" stroke="#64829f"/>
  <path d="m44 13 7 9 39-9" stroke="#f4faff" stroke-width="1.7"/>
  <!-- Lower jaw mirrors the opening, swelling toward the viewer. -->
  <path d="m50 58-12 12 4 16 39 7 12-12-4-21-15 8 2 12-20-4 5-12z" fill="url(#metal)" stroke="#a6bfd8"/>
  <path d="m42 86 39 7 12-12-43-10-12-1z" fill="url(#front)" stroke="#d8e8f8"/>
  <path d="m50 71 43 10-4-21-15 8 2 8-20-5z" fill="#29425d"/>
  <path d="m54 73 30 6 3-6-29-7z" fill="#111f30" stroke="#64829f"/>
  <path d="m43 83 8-9 39 9" stroke="#eaf5ff" stroke-width="1.7"/>
  <g fill="#efb07d" stroke="#38291e"><circle cx="48" cy="35" r="2.4"/><circle cx="48" cy="61" r="2.4"/></g>
  <g fill="#263b52"><circle cx="53" cy="15" r="1.4"/><circle cx="82" cy="10" r="1.4"/><circle cx="51" cy="84" r="1.4"/><circle cx="82" cy="87" r="1.4"/></g>
</svg>
